<svg id="Layer_1" data-name="Layer 1" xmlns="http://www.w3.org/2000/svg" viewBox="0 0 93.9 106.88">
  <defs>
    <style>
      .cls-1{fill:#fdfdfd}
    </style>
  </defs>
  <title>
    Incounter-logo
  </title>
  <path class="cls-1" d="M91.4 24.89L49.45.67a5 5 0 0 0-5 0L2.5 24.89A5 5 0 0 0 0 29.22v48.44A5 5 0 0 0 2.5 82l42 24.22a5 5 0 0 0 5 0L91.4 82a5 5 0 0 0 2.5-4.33V29.22a5 5 0 0 0-2.5-4.33zM71.52 41.8L48.68 81.36a2 2 0 0 1-3.46 0L22.38 41.8a2 2 0 0 1 1.73-3h45.68a2 2 0 0 1 1.73 3z"/>
</svg>
